<svg style="width: 40px; height: 40px; fill: var(--color-icon-low-emphasis);" xmlns="http://www.w3.org/2000/svg"><defs><symbol id="twitter" xmlns="http://www.w3.org/2000/svg" viewBox="0 0 24 24"><path d="M21 6.73a7.374 7.374 0 01-2.12.581 3.708 3.708 0 001.623-2.041 7.444 7.444 0 01-2.346.896 3.693 3.693 0 00-6.292 3.367 10.483 10.483 0 01-7.61-3.858 3.665 3.665 0 00-.5 1.856 3.69 3.69 0 001.642 3.073 3.692 3.692 0 01-1.673-.464v.046a3.696 3.696 0 002.962 3.621c-.31.083-.636.13-.973.13-.238 0-.47-.024-.695-.07a3.695 3.695 0 003.448 2.565 7.409 7.409 0 01-4.585 1.579c-.298 0-.592-.018-.881-.051a10.437 10.437 0 005.66 1.661c6.793 0 10.506-5.626 10.506-10.505l-.013-.478A7.373 7.373 0 0021 6.73z"></path></symbol></defs><use href="#twitter"></use><!-- Code injected by live-server -->
<script>
	// <![CDATA[  <-- For SVG support
	if ('WebSocket' in window) {
		(function () {
			function refreshCSS() {
				var sheets = [].slice.call(document.getElementsByTagName("link"));
				var head = document.getElementsByTagName("head")[0];
				for (var i = 0; i < sheets.length; ++i) {
					var elem = sheets[i];
					var parent = elem.parentElement || head;
					parent.removeChild(elem);
					var rel = elem.rel;
					if (elem.href && typeof rel != "string" || rel.length == 0 || rel.toLowerCase() == "stylesheet") {
						var url = elem.href.replace(/(&|\?)_cacheOverride=\d+/, '');
						elem.href = url + (url.indexOf('?') >= 0 ? '&' : '?') + '_cacheOverride=' + (new Date().valueOf());
					}
					parent.appendChild(elem);
				}
			}
			var protocol = window.location.protocol === 'http:' ? 'ws://' : 'wss://';
			var address = protocol + window.location.host + window.location.pathname + '/ws';
			var socket = new WebSocket(address);
			socket.onmessage = function (msg) {
				if (msg.data == 'reload') window.location.reload();
				else if (msg.data == 'refreshcss') refreshCSS();
			};
			if (sessionStorage && !sessionStorage.getItem('IsThisFirstTime_Log_From_LiveServer')) {
				console.log('Live reload enabled.');
				sessionStorage.setItem('IsThisFirstTime_Log_From_LiveServer', true);
			}
		})();
	}
	else {
		console.error('Upgrade your browser. This Browser is NOT supported WebSocket for Live-Reloading.');
	}
	// ]]>
</script>
</svg>